+15_ID_stride6.mot
nRows=6
nColumns=38

name +15_ID_stride6.mot
datacolumns 38
datarows 6
range 3.1850000000 3.2100000000
endheader
time	pelvis_tilt_moment	pelvis_list_moment	pelvis_rotation_moment	pelvis_tx_force	pelvis_ty_force	pelvis_tz_force	hip_flexion_r_moment	hip_adduction_r_moment	hip_rotation_r_moment	knee_angle_r_moment	ankle_angle_r_moment	subtalar_angle_r_moment	mtp_angle_r_moment	hip_flexion_l_moment	hip_adduction_l_moment	hip_rotation_l_moment	knee_angle_l_moment	ankle_angle_l_moment	subtalar_angle_l_moment	mtp_angle_l_moment	lumbar_extension_moment	lumbar_bending_moment	lumbar_rotation_moment	arm_flex_r_moment	arm_add_r_moment	arm_rot_r_moment	elbow_flex_r_moment	pro_sup_r_moment	wrist_flex_r_moment	wrist_dev_r_moment	arm_flex_l_moment	arm_add_l_moment	arm_rot_l_moment	elbow_flex_l_moment	pro_sup_l_moment	wrist_flex_l_moment	wrist_dev_l_moment
        3.1850000000	      -10.8420085396	      -14.7706866120	        5.6961596828	        7.1109372590	       -3.8058383365	      -82.3157270964	        1.7333919505	      -54.3378900712	       26.1664559430	       16.2369326107	     -199.0615347179	       45.1252573662	       -0.0200573765	       -8.6690422076	        4.6130649607	       -3.7643957927	       -3.4756680116	        2.2775108058	       -0.0663259875	        0.1389643415	       20.7440921357	        5.1528630970	      -31.5782472892	        2.0544244937	       -2.3105359765	       -3.2955439612	        5.7236189472	       -0.2158713582	       -0.2430202837	       -0.5573299704	        7.8261008419	        6.3358620938	        3.9776040969	        5.7054825042	       -0.0024000986	        0.5176856721	       -0.3980974876	
        3.1900000000	      -15.1711645634	      -11.6165630187	        1.0881096794	       16.2835824352	      -23.6362592496	     -105.0547523299	       10.5934896263	      -47.4211810639	       20.8777988570	       12.7276182223	     -190.1640893840	       42.2194388573	       -0.0235006858	       -9.4957322716	        2.3385149256	       -3.0235518760	       -3.0200544481	        2.4178894512	       -0.1679187659	        0.1434015880	       12.3509206284	        6.6389018764	      -32.9953250460	        1.7309311014	       -2.6604665899	       -3.5128853238	        5.1644210287	       -0.2130722404	       -0.2772243374	       -0.5132924871	        7.9334571141	        6.3125150179	        4.0449185919	        5.2515611567	        0.0105861483	        0.5168765565	       -0.3534272533	
        3.1950000000	      -13.0411892436	      -17.7792768291	       -0.0760931245	       30.4944090210	      -36.5264126682	     -105.1863651754	        8.1956359126	      -45.3345392954	       19.7562078291	        3.6670589463	     -182.4304865767	       40.4712336555	       -0.0273374186	      -10.7447619080	        1.6125739747	       -2.2622212400	       -2.9578790989	        2.5511281854	       -0.2693660925	        0.1480167423	        5.9846079551	        8.2629819174	      -34.3240270855	        1.2652933266	       -2.9017296785	       -3.6569014493	        4.5870679390	       -0.2084244521	       -0.3049017002	       -0.4671590302	        7.8930040910	        6.1595508859	        4.0420283840	        4.8031265772	        0.0227866614	        0.5125565096	       -0.3104143499	
        3.2000000000	       -8.0769134898	      -28.4630345451	       -1.1199696567	       46.0509063235	      -39.9942820582	     -102.4838971166	        3.7425407952	      -44.9348901175	       19.5593542743	       -7.4698257534	     -173.7861101925	       38.7351692316	       -0.0316075881	      -12.8847951165	        1.6465399647	       -1.4765158746	       -3.0907315748	        2.6468612539	       -0.3618042272	        0.1518986359	        1.2761044854	        9.8236823450	      -35.6464156516	        0.6579049021	       -2.9700634879	       -3.6969455599	        3.9935222631	       -0.2019606542	       -0.3263532165	       -0.4187762343	        7.7793317465	        5.8680601472	        4.0223728323	        4.3613939768	        0.0342191972	        0.5049093048	       -0.2686231779	
        3.2050000000	        0.0186583980	      -36.6883203615	       -2.9166194439	       58.2359778758	      -38.0333590614	      -82.4601999249	        0.3359086383	      -45.1542265151	       19.6619001885	      -15.6848850471	     -162.5450599034	       36.4605047353	       -0.0363676273	      -17.1106091154	        3.3904552441	       -0.6730784858	       -4.3925851909	        2.6887802402	       -0.4361216794	        0.1541934881	       -1.8953150314	       11.1370475085	      -36.9935312321	       -0.1249859234	       -2.9554578996	       -3.6859085153	        3.3817622864	       -0.1934102901	       -0.3412226979	       -0.3675070762	        7.5066245025	        5.4125222616	        3.9231701834	        3.9265746589	        0.0447610653	        0.4938303132	       -0.2278648535	
        3.2100000000	        6.9921271994	      -37.1627718721	       -7.9082098706	       63.3545187239	      -30.9840568230	      -61.3480265433	        6.5223115184	      -41.8841587652	       17.5499286912	      -17.9866806716	     -147.7319532801	       33.1280331853	       -0.0412559522	      -23.6270159261	        6.3113968121	        0.0946315004	       -6.8173998690	        2.6655788523	       -0.4834382337	        0.1546383246	       -3.8307456936	       12.0532838543	      -38.3099407311	       -1.0570473301	       -2.7669329786	       -3.5681329032	        2.7507122314	       -0.1827271672	       -0.3498301996	       -0.3129834440	        7.1038236552	        4.8111169304	        3.7726331019	        3.4901066878	        0.0544171164	        0.4790393041	       -0.1872911116	
